# xmcd CD database file
#
# Track frame offsets:
#	150
#	13943
#	28173
#	43405
#	56989
#	70251
#	83503
#	93558
#	109557
#	128499
#	141867
#	155437
#	173444
#	181162
#	198652
#	214387
#	225414
#	238443
#
# Disc length: 3360 seconds
#
# Revision: 2
# Processed by: cddbd v1.5.1PL0 Copyright (c) Steve Scherf et al.
# Submitted via: CDex 1.40Beta8
#
DISCID=fe0d1e12
DTITLE=Bailão Gaúcho 2004 - Ás Melhores
DYEAR=2003
DGENRE=Vaneirão
TTITLE0=Alagados - Alma Serrana
TTITLE1=Pinga Na Goela - Os Serranos
TTITLE2=Vai Mexendo O Panelão - Tchê Garotos
TTITLE3=Mimoso Das Gurias - Xirú Missioneiro
TTITLE4=Hora De Namorar - Tradição
TTITLE5=Forró Da Carolina - Gaúcho Da Fronteira
TTITLE6=A Jiripoca Vai Piá - Alma Serrana
TTITLE7=Limpa Banco Na Restinga - Os Serranos
TTITLE8=Isso Só Pode Ser Festa - Tchê Garotos
TTITLE9=Mundo Missioneiro - Xirú Missioneiro
TTITLE10=Tá Bão - Tradição
TTITLE11=Manda Brasa - Gaúcho Da Fronteira
TTITLE12=Vamo Namorá - Alma Serrana
TTITLE13=Casamento De Sitio - Os Serranos
TTITLE14=Tu É Veado? - Tchê Garotos
TTITLE15=Bailongo - Xirú Missioneiro
TTITLE16=Aquela Do Elefante - Tradição
TTITLE17=Ligeiramente Apaixonado - Gaúcho Da Fronteira
EXTD=YEAR: 2003
EXTT0=
EXTT1=
EXTT2=
EXTT3=
EXTT4=
EXTT5=
EXTT6=
EXTT7=
EXTT8=
EXTT9=
EXTT10=
EXTT11=
EXTT12=
EXTT13=
EXTT14=
EXTT15=
EXTT16=
EXTT17=
PLAYORDER=
